<?xml version="1.0" encoding="utf-8"?>
<!-- Generator: Adobe Illustrator 21.0.0, SVG Export Plug-In . SVG Version: 6.00 Build 0)  -->
<svg version="1.1" id="Layer_1" xmlns="http://www.w3.org/2000/svg" xmlns:xlink="http://www.w3.org/1999/xlink" x="0px" y="0px"
	 viewBox="0 0 150 50" style="enable-background:new 0 0 150 50;" xml:space="preserve">
<style type="text/css">
	.st0{fill:none;stroke:#FFFFFF;stroke-miterlimit:10;}
	.st1{fill:#C1A57B;}
	.st2{fill:#ECECEC;}
</style>
<path class="st0" d="M26.5,57"/>
<g>
	<rect x="14.2" y="40.8" class="st1" width="5.5" height="3.8"/>
	<rect x="36.2" y="40.8" class="st1" width="5.5" height="3.8"/>
	<rect x="24.2" y="37.8" class="st1" width="7.5" height="2.5"/>
	<rect x="24.2" y="41.8" class="st1" width="7.5" height="2.8"/>
	<path class="st1" d="M28.5,9.6l18.9,7.9v-10c0-1.1-0.9-2-2-2h-35c-1.1,0-2,0.9-2,2v10l18.9-7.9C27.8,9.4,28.2,9.4,28.5,9.6z"/>
	<path class="st1" d="M28.3,19.5c2.3,0.2,4.1,2.1,4.1,4.5h-9c0-2.4,1.8-4.3,4.1-4.5v-6.8l-19.1,8v21.8c0,1.1,0.9,2,2,2h2.3V31h1.5
		v8.3h7v5.3h1.5V41v-0.8v-2.5H20v-1.5h16v1.5h-2.8v2.5V41v3.5h1.5v-5.3h7V31h1.5v13.5h2.2c1.1,0,2-0.9,2-2V20.7l-19.1-8V19.5z"/>
</g>
<path class="st2" d="M59.4,18.7c0.4,0,0.6,0.3,0.6,0.6v8.4h0.7c0.7,0,1.4,0,2.1-0.1c0.5,0,1-0.1,1.6-0.2c0.4-0.1,0.7,0.2,0.7,0.6
	l0,0.3c0,0.3-0.2,0.7-0.5,0.7c-0.6,0.1-1.2,0.1-1.8,0.2c-0.9,0-1.8,0.1-2.9,0.1h-1.1c-0.4,0-0.6-0.3-0.6-0.6v-9.4
	c0-0.4,0.3-0.6,0.6-0.6H59.4z M71.4,34h-0.5c-0.4,0-0.6-0.3-0.6-0.6v-8.5c0-0.4-0.3-0.6-0.6-0.6h-0.8c-0.4,0-0.6,0.3-0.6,0.6v7.7
	c0,0.4-0.3,0.6-0.6,0.6H67c-0.4,0-0.6-0.3-0.6-0.6V18.1c0-0.4,0.3-0.6,0.6-0.6h0.5c0.4,0,0.6,0.3,0.6,0.6v3.9c0,0.4,0.3,0.6,0.6,0.6
	h0.8c0.4,0,0.6-0.3,0.6-0.6v-4.2c0-0.4,0.3-0.6,0.6-0.6h0.5c0.4,0,0.6,0.3,0.6,0.6v15.6C72,33.7,71.7,34,71.4,34z"/>
<path class="st1" d="M82.3,22.3c-0.1,0.2-0.2,0.4-0.5,0.7c-0.3,0.3-0.6,0.6-0.9,0.9c-0.4,0.3-0.9,0.7-1.5,1.1
	c-0.4,0.3-0.8,0.6-1.2,0.8c-0.3,0.2-0.8,0.1-1-0.2L77,25.3c-0.3-0.3-0.2-0.8,0.2-1.1c0.4-0.3,0.9-0.6,1.3-0.9
	c0.6-0.4,1.1-0.8,1.5-1.2c0.3-0.3,0.5-0.5,0.7-0.7c0.2-0.2,0.3-0.5,0.4-0.7c0.1-0.3,0.2-0.5,0.2-0.8c0-0.3,0-0.6,0-1v-0.2h-3.4
	c-0.4,0-0.7-0.3-0.7-0.7v-0.3c0-0.4,0.3-0.7,0.7-0.7h8.6c0.4,0,0.7,0.3,0.7,0.7V18c0,0.4-0.3,0.7-0.7,0.7h-3.1v0.1
	c0,0.3,0,0.6,0,0.9c0,0.3,0,0.5,0.1,0.7c0.1,0.2,0.2,0.4,0.3,0.6c0.1,0.2,0.3,0.4,0.6,0.6c0.5,0.4,1,0.8,1.6,1.2
	c0.4,0.3,0.8,0.5,1.2,0.8c0.4,0.2,0.4,0.7,0.2,1.1L87,25.1c-0.2,0.3-0.7,0.4-1,0.2c-0.3-0.2-0.7-0.5-1-0.7c-0.5-0.4-1-0.7-1.5-1.1
	c-0.3-0.2-0.5-0.4-0.8-0.6C82.6,22.6,82.4,22.5,82.3,22.3L82.3,22.3z M92,27.4v7c0,0.4-0.3,0.7-0.7,0.7H80.7c-0.4,0-0.7-0.3-0.7-0.7
	v-7c0-0.4,0.3-0.7,0.7-0.7h0.6c0.4,0,0.7,0.3,0.7,0.7v1c0,0.4,0.3,0.7,0.7,0.7h6.5c0.4,0,0.7-0.3,0.7-0.7v-1c0-0.4,0.3-0.7,0.7-0.7
	h0.6C91.7,26.7,92,27,92,27.4z M89.9,32.7v-1.1c0-0.4-0.3-0.7-0.7-0.7h-6.5c-0.4,0-0.7,0.3-0.7,0.7v1.1c0,0.4,0.3,0.7,0.7,0.7h6.5
	C89.6,33.4,89.9,33.1,89.9,32.7z M89.9,25v-8.5c0-0.4,0.3-0.7,0.7-0.7h0.6c0.4,0,0.7,0.3,0.7,0.7V25c0,0.4-0.3,0.7-0.7,0.7h-0.6
	C90.3,25.8,89.9,25.4,89.9,25z"/>
<g>
	<path class="st2" d="M101.6,33.3v-5.6c0-0.4-0.3-0.6-0.6-0.6h-5.5c-0.4,0-0.6-0.3-0.6-0.6v-0.3c0-0.4,0.3-0.6,0.6-0.6h3.5
		c0.3,0,0.6-0.2,0.6-0.5c0.1-0.3,0.1-0.6,0.2-0.9c0.1-0.5,0.2-0.9,0.2-1.4c0.1-0.5,0.1-0.9,0.1-1.3c0-0.4,0-0.7,0-1v-0.7h-3.2
		c-0.4,0-0.6-0.3-0.6-0.6v-0.3c0-0.4,0.3-0.6,0.6-0.6h5v1.3c0,1-0.1,2.1-0.2,3.1c-0.1,0.8-0.2,1.5-0.3,2.2c-0.1,0.4,0.2,0.8,0.6,0.8
		h3.3c0.3,0,0.6-0.2,0.6-0.5c0.2-0.9,0.3-1.6,0.4-2.3c0.1-0.8,0.1-1.6,0.1-2.3v-0.7h-3c-0.4,0-0.6-0.3-0.6-0.6v-0.3
		c0-0.4,0.3-0.6,0.6-0.6h4.8v1.3c0,0.9,0,1.9-0.1,2.9c0,0.8-0.1,1.6-0.3,2.4c-0.1,0.4,0.2,0.8,0.6,0.8h1.2c0.4,0,0.6,0.3,0.6,0.6
		v0.3c0,0.4-0.3,0.6-0.6,0.6H104c-0.4,0-0.6,0.3-0.6,0.6v5.6c0,0.4-0.3,0.6-0.6,0.6h-0.5C101.8,34,101.6,33.7,101.6,33.3z"/>
	<path class="st2" d="M112.6,28.9v-9.6c0-0.4,0.3-0.6,0.6-0.6h6.6c0.4,0,0.6,0.3,0.6,0.6v9.6c0,0.4-0.3,0.6-0.6,0.6h-6.6
		C112.9,29.5,112.6,29.2,112.6,28.9z M115,28h3c0.4,0,0.6-0.3,0.6-0.6v-6.5c0-0.4-0.3-0.6-0.6-0.6h-3c-0.4,0-0.6,0.3-0.6,0.6v6.5
		C114.4,27.7,114.7,28,115,28z M123.6,33.3V17.7c0-0.4,0.3-0.6,0.6-0.6h0.5c0.4,0,0.6,0.3,0.6,0.6v15.6c0,0.4-0.3,0.6-0.6,0.6h-0.5
		C123.8,34,123.6,33.7,123.6,33.3z"/>
	<path class="st2" d="M129.1,29.4c-0.2-0.3-0.1-0.7,0.2-0.9c0.7-0.4,1.4-0.8,1.9-1.2c0.7-0.4,1.2-0.9,1.7-1.2c0.5-0.4,0.8-0.7,1.1-1
		c0.3-0.3,0.4-0.6,0.6-1c0.1-0.3,0.2-0.7,0.2-1c0-0.4,0-0.8,0-1.2v-1c0-0.4-0.3-0.6-0.6-0.6h-4.5c-0.4,0-0.6-0.3-0.6-0.6v-0.3
		c0-0.4,0.3-0.6,0.6-0.6h6.3c0.4,0,0.6,0.3,0.6,0.6v2.6c0,0.5,0,1,0,1.5c0,0.4-0.1,0.9-0.3,1.3c-0.1,0.4-0.4,0.8-0.6,1.2
		c-0.3,0.4-0.7,0.8-1.2,1.2c-0.5,0.4-1.2,0.9-1.9,1.4c-0.6,0.4-1.4,0.9-2.3,1.5c-0.3,0.2-0.7,0.1-0.9-0.2L129.1,29.4z M140.2,33.3
		V17.7c0-0.4,0.3-0.6,0.6-0.6h0.5c0.4,0,0.6,0.3,0.6,0.6v15.6c0,0.4-0.3,0.6-0.6,0.6h-0.5C140.5,34,140.2,33.7,140.2,33.3z"/>
</g>
</svg>
